#!OML:ASF \\sashay\E\Suitcase\Project 1\Capture day 1\Session 1\Male1.ASF
:FULLY-SPECIFIED
:DEGREES
1
root 1.05368 17.5144 -32.4269 7.76616 4.93952 -1.88194
lowerback -2.52682 -1.85331 1.05116
upperback -1.46612 -2.49665 1.9908
thorax -0.043012 -1.2477 1.38885
lowerneck -18.4747 -2.01576 -5.00123
upperneck 13.214 -1.93613 2.9662
head 7.1526 -0.908395 1.56167
rclavicle -2.85008e-014 1.86858e-014
rhumerus -41.6402 -31.3118 -60.9728
rradius 17.7054
rwrist -0.241817
rhand -14.8613 20.0522
rfingers 7.12502
rthumb 11.2985 -9.62347
lclavicle -2.85008e-014 1.86858e-014
lhumerus -36.4759 8.26336 82.171
lradius 30.8474
lwrist -5.85902
lhand -3.23456 41.3297
lfingers 7.12502
lthumb 22.4888 70.0402
rfemur -12.1289 -0.177322 24.099
rtibia 27.072
rfoot -21.5408 -14.5136
rtoes 10.5092
lfemur -13.2829 -6.1108 -17.8833
ltibia 27.6296
lfoot -21.9921 2.32439
ltoes -3.65169
2
root 1.04432 17.5123 -32.4307 7.79403 5.02591 -2.01594
lowerback -2.44324 -1.85407 1.09065
upperback -1.56234 -2.4943 2.02763
thorax -0.188474 -1.24671 1.40977
lowerneck -18.3597 -2.032 -4.88631
upperneck 13.1568 -1.97691 2.87191
head 7.11407 -0.931413 1.50765
rclavicle -3.75206e-015 -1.78906e-014
rhumerus -41.8694 -31.3926 -60.828
rradius 17.6926
rwrist -0.245668
rhand -14.1143 20.2431
rfingers 7.12502
rthumb 12.0189 -9.39178
lclavicle -3.75206e-015 -1.78906e-014
lhumerus -36.4909 8.16708 82.1774
lradius 30.7949
lwrist -5.75285
lhand -3.39394 40.7565
lfingers 7.12502
lthumb 22.3358 69.4855
rfemur -12.1655 -0.00119577 24.3001
rtibia 27.0199
rfoot -21.6544 -14.7287
rtoes 11.2479
lfemur -13.3915 -6.1826 -17.6649
ltibia 27.7693
lfoot -22.1116 2.33631
ltoes -3.75981
3
root 1.04374 17.5104 -32.4224 7.72499 5.13483 -1.9818
lowerback -2.44562 -1.88561 1.05298
upperback -1.54836 -2.53598 2.00384
thorax -0.171542 -1.2674 1.40506
lowerneck -18.2182 -2.07545 -5.04222
upperneck 12.921 -2.04101 3.116
head 7.02017 -0.947241 1.60564
rclavicle -3.79182e-014 1.86858e-014
rhumerus -42.0971 -32.1316 -60.2587
rradius 17.4122
rwrist 0.558122
rhand -14.6703 20.0806
rfingers 7.12502
rthumb 11.4828 -9.58494
lclavicle -3.79182e-014 1.86858e-014
lhumerus -36.5587 8.22405 82.1503
lradius 30.8277
lwrist -5.88555
lhand -3.40573 41.3359
lfingers 7.12502
lthumb 22.3245 70.0662
rfemur -12.0149 -0.244851 24.2739
rtibia 26.9893
rfoot -21.6359 -14.5945
rtoes 11.1539
lfemur -13.3652 -6.12546 -17.7268
ltibia 27.7818
lfoot -22.0679 2.3208
ltoes -4.24972
4
root 1.03786 17.5131 -32.4208 7.67699 5.06464 -2.02067
lowerback -2.4315 -1.87467 1.01125
upperback -1.54028 -2.52051 2.01229
thorax -0.16924 -1.25939 1.4377
lowerneck -18.3229 -2.06631 -5.03563
upperneck 13.2066 -2.03028 3.11932
head 7.1306 -0.942062 1.60734
rclavicle -4.25648e-014 -4.37326e-015
rhumerus -41.9589 -31.5301 -60.7735
rradius 17.5673
rwrist -0.0232332
rhand -14.2676 20.2939
rfingers 7.12502
rthumb 11.871 -9.34957
lclavicle -4.25648e-014 -4.37326e-015
lhumerus -36.481 8.1342 82.1845
lradius 30.7758
lwrist -5.6039
lhand -3.72399 40.9461
lfingers 7.12502
lthumb 22.019 69.7127
rfemur -11.9257 -0.0550565 24.327
rtibia 26.8795
rfoot -21.594 -14.7459
rtoes 11.2149
lfemur -13.2955 -6.07382 -17.6715
ltibia 27.8918
lfoot -22.2142 2.30536
ltoes -4.07608
5
root 1.03517 17.5118 -32.413 7.67611 5.33828 -1.88098
lowerback -2.44508 -1.95 0.866818
upperback -1.5836 -2.61749 1.9611
thorax -0.200212 -1.30715 1.46419
lowerneck -18.6095 -2.13265 -4.85074
upperneck 13.681 -2.10541 2.80033
head 7.33223 -0.998765 1.46357
rclavicle 2.87492e-014 -2.26615e-014
rhumerus -42.224 -32.0547 -60.3252
rradius 17.3864
rwrist 0.527996
rhand -13.9215 20.3648
rfingers 7.12502
rthumb 12.2048 -9.25914
lclavicle 2.87492e-014 -2.26615e-014
lhumerus -36.5998 8.06229 82.2091
lradius 30.8914
lwrist -5.78079
lhand -3.71407 41.0381
lfingers 7.12502
lthumb 22.0285 69.8036
rfemur -11.8108 -0.249257 24.2088
rtibia 26.8199
rfoot -21.7407 -14.7029
rtoes 11.4629
lfemur -13.3356 -6.2321 -17.7787
ltibia 27.9441
lfoot -22.1723 2.19948
ltoes -3.60193
6
root 1.03367 17.4998 -32.4126 7.65757 5.25833 -1.88013
lowerback -2.44982 -1.95601 0.887049
upperback -1.56201 -2.62642 1.91288
thorax -0.178406 -1.31196 1.40262
lowerneck -18.2502 -2.2605 -4.60964
upperneck 13.1663 -2.31892 2.6101
head 7.10606 -1.10639 1.33817
rclavicle 1.05977e-014 -1.78906e-015
rhumerus -42.0043 -31.5055 -60.9685
rradius 17.5039
rwrist 0.451501
rhand -14.8578 19.783
rfingers 7.12502
rthumb 11.3019 -9.89246
lclavicle 1.05977e-014 -1.78906e-015
lhumerus -36.4783 8.11053 82.1114
lradius 30.8885
lwrist -5.70551
lhand -3.44083 41.4427
lfingers 7.12502
lthumb 22.2908 70.177
rfemur -11.7147 -0.172955 24.2422
rtibia 26.6914
rfoot -21.4923 -14.9147
rtoes 10.4499
lfemur -13.3407 -6.16778 -17.7928
ltibia 28.0519
lfoot -22.3447 2.33919
ltoes -4.57019
7
root 1.02892 17.4965 -32.4127 7.70391 5.35957 -1.82631
lowerback -2.52594 -1.9514 0.713487
upperback -1.55078 -2.61868 1.94031
thorax -0.11542 -1.30696 1.52463
lowerneck -18.4599 -2.31039 -4.70849
upperneck 13.477 -2.36102 2.64433
head 7.24647 -1.1284 1.35958
rclavicle -1.72197e-014 6.55989e-015
rhumerus -41.9789 -31.4551 -61.0115
rradius 17.5854
rwrist 0.316309
rhand -14.9467 19.6893
rfingers 7.12502
rthumb 11.2161 -9.99089
lclavicle -1.72197e-014 6.55989e-015
lhumerus -36.4445 7.91719 82.3092
lradius 31.0449
lwrist -5.49419
lhand -3.5654 40.8026
lfingers 7.12502
lthumb 22.1712 69.5512
rfemur -11.7426 -0.234986 24.2188
rtibia 26.6931
rfoot -21.5006 -14.8628
rtoes 10.8433
lfemur -13.4314 -6.26251 -17.8173
ltibia 28.0664
lfoot -22.2169 2.33897
ltoes -4.221
8
root 1.02611 17.497 -32.4099 7.66169 5.35074 -1.80956
lowerback -2.46187 -1.96033 0.690222
upperback -1.61134 -2.62765 1.87698
thorax -0.214997 -1.31137 1.47642
lowerneck -18.3434 -2.30792 -4.59593
upperneck 13.5223 -2.39497 2.65118
head 7.24164 -1.13913 1.34044
rclavicle 2.81777e-014 -8.34896e-015
rhumerus -42.1867 -31.4386 -61.0026
rradius 17.571
rwrist 0.300149
rhand -14.9613 19.7196
rfingers 7.12502
rthumb 11.2021 -9.96137
lclavicle 2.81777e-014 -8.34896e-015
lhumerus -36.4559 7.91174 82.2279
lradius 30.9795
lwrist -5.52074
lhand -3.52479 41.6791
lfingers 7.12502
lthumb 22.2102 70.4231
rfemur -11.6589 -0.19065 24.2107
rtibia 26.5936
rfoot -21.4841 -14.943
rtoes 10.884
lfemur -13.4263 -6.25258 -17.8512
ltibia 28.1674
lfoot -22.314 2.35062
ltoes -4.75594
9
root 1.02298 17.4961 -32.4038 7.77242 5.25182 -1.63541
lowerback -2.66191 -1.88801 0.429119
upperback -1.60215 -2.52931 1.81501
thorax -0.0872537 -1.26091 1.55359
lowerneck -18.5608 -2.35831 -4.34373
upperneck 13.8623 -2.45741 2.27626
head 7.38435 -1.19129 1.16749
rclavicle -3.42904e-015 3.37934e-015
rhumerus -42.1766 -31.5074 -60.969
rradius 17.4997
rwrist 0.481008
rhand -14.927 19.5394
rfingers 7.12502
rthumb 11.2352 -10.1397
lclavicle -3.42904e-015 3.37934e-015
lhumerus -36.3029 7.90415 82.2425
lradius 30.908
lwrist -5.61343
lhand -3.45166 41.0523
lfingers 7.12502
lthumb 22.2804 69.7878
rfemur -11.7645 -0.40518 24.0104
rtibia 26.6715
rfoot -21.5047 -14.6624
rtoes 10.4494
lfemur -13.4574 -6.3822 -18.0226
ltibia 28.1241
lfoot -22.2788 2.38756
ltoes -3.6796
10
root 1.01673 17.4976 -32.405 7.77407 5.30248 -1.84688
lowerback -2.54483 -1.9479 0.690542
upperback -1.71002 -2.61059 1.81872
thorax -0.272808 -1.30288 1.41622
lowerneck -18.4898 -2.34127 -4.50546
upperneck 13.9011 -2.45116 2.5849
head 7.39102 -1.16798 1.29677
rclavicle -5.59082e-016 -7.95139e-015
rhumerus -42.4144 -32.0108 -60.5474
rradius 17.2404
rwrist 1.02367
rhand -14.6297 19.9738
rfingers 7.12502
rthumb 11.5219 -9.68949
lclavicle -5.59082e-016 -7.95139e-015
lhumerus -36.4566 7.96176 82.0564
lradius 30.9254
lwrist -5.70952
lhand -3.5354 40.8696
lfingers 7.12502
lthumb 22.2 69.6148
rfemur -11.7931 -0.243808 24.2783
rtibia 26.6498
rfoot -21.5209 -14.9272
rtoes 10.549
lfemur -13.5177 -6.29811 -17.7702
ltibia 28.1296
lfoot -22.2856 2.47017
ltoes -5.04273
11
root 1.01631 17.4909 -32.4019 7.77252 5.4179 -1.82137
lowerback -2.59282 -1.95146 0.624346
upperback -1.69187 -2.61517 1.79733
thorax -0.225305 -1.30484 1.42891
lowerneck -18.6231 -2.37719 -4.45282
upperneck 14.0255 -2.51632 2.62132
head 7.45675 -1.19213 1.29179
rclavicle 3.75082e-014 -1.13307e-014
rhumerus -42.4353 -31.9678 -60.5732
rradius 17.2356
rwrist 1.1326
rhand -14.6914 20.007
rfingers 7.12502
rthumb 11.4623 -9.65965
lclavicle 3.75082e-014 -1.13307e-014
lhumerus -36.3414 8.00088 82.0721
lradius 30.8881
lwrist -5.92522
lhand -3.37743 41.0508
lfingers 7.12502
lthumb 22.3517 69.7779
rfemur -11.7831 -0.374491 24.2624
rtibia 26.6818
rfoot -21.5718 -14.8586
rtoes 10.8438
lfemur -13.5957 -6.19642 -17.8229
ltibia 28.1161
lfoot -22.2097 2.66127
ltoes -6.67114
